<?xml version="1.0" encoding="utf-8"?>
<!-- Generator: Adobe Illustrator 28.0.0, SVG Export Plug-In . SVG Version: 6.00 Build 0)  -->
<svg version="1.1" id="a" xmlns="http://www.w3.org/2000/svg" xmlns:xlink="http://www.w3.org/1999/xlink" x="0px" y="0px"
	 viewBox="0 0 32 32" style="enable-background:new 0 0 32 32;" xml:space="preserve">
<style type="text/css">
	.st0{fill:#FFFFFF;}
	.st1{fill:#1B1B1B;}
</style>
<circle class="st0" cx="16" cy="16" r="16"/>
<g>
	<path class="st1" d="M5,23V9c0-0.2,0.1-0.3,0.3-0.3h5.6c2.8,0,4.3,1.4,4.3,3.8v0.2c0,1.5-0.8,2.6-2.1,3c1.6,0.4,2.5,1.6,2.5,3.3
		v0.2c0,2.6-1.7,4.1-4.6,4.1H5.3C5.1,23.3,5,23.1,5,23z M10.3,14.5c1.1,0,1.7-0.6,1.7-1.5v-0.1c0-0.9-0.6-1.4-1.7-1.4H8.1v3.1
		L10.3,14.5L10.3,14.5z M10.6,20.6c1.2,0,1.9-0.6,1.9-1.6v-0.3c0-1-0.7-1.6-1.9-1.6H8.1v3.4H10.6z"/>
	<path class="st1" d="M26.8,8.7h-9.3c-0.1,0-0.3,0.1-0.3,0.3v2.3c0,0.1,0.1,0.3,0.3,0.3h6l-6.2,8.7c-0.1,0.1-0.1,0.2-0.1,0.4V23
		c0,0.1,0.1,0.3,0.3,0.3h9.3c0.1,0,0.3-0.1,0.3-0.3v-2.3c0-0.1-0.1-0.3-0.3-0.3h-6.1l6.3-9c0.1-0.1,0.1-0.2,0.1-0.4V9
		C27.1,8.8,26.9,8.7,26.8,8.7z"/>
</g>
</svg>
