<?xml version="1.0" encoding="UTF-8" standalone="no"?>
<!DOCTYPE svg PUBLIC "-//W3C//DTD SVG 1.1//EN" "http://www.w3.org/Graphics/SVG/1.1/DTD/svg11.dtd">
<svg width="100%" height="100%" viewBox="0 0 156 24" version="1.1" xmlns="http://www.w3.org/2000/svg" xmlns:xlink="http://www.w3.org/1999/xlink" xml:space="preserve" xmlns:serif="http://www.serif.com/" style="fill-rule:evenodd;clip-rule:evenodd;stroke-linejoin:round;stroke-miterlimit:2;">
    <g id="Artboard1" transform="matrix(0.9752,0,0,0.774458,1.86837,-5.19707)">
        <rect x="-1.916" y="6.711" width="159.232" height="30.764" style="fill:none;"/>
        <clipPath id="_clip1">
            <rect x="-1.916" y="6.711" width="159.232" height="30.764"/>
        </clipPath>
        <g clip-path="url(#_clip1)">
            <g transform="matrix(1.02543,0,0,1.29123,-1.78766,-6.12246)">
                <path d="M25.365,10L21.71,10L21.71,28.407L25.365,28.407L25.365,10ZM17.196,10.727C18.363,10.727 19.31,11.673 19.31,12.84C19.31,14.007 18.363,14.954 17.196,14.954C16.029,14.954 15.083,14.007 15.083,12.84C15.083,11.673 16.029,10.727 17.196,10.727ZM15.369,16.584L19.024,16.584L19.024,28.429L15.369,28.429L15.369,16.584ZM0,11.167L6.429,11.167C9.446,11.167 12.727,11.806 12.727,15.549C12.727,17.464 11.538,18.785 9.754,19.358L9.754,19.402C12.022,19.688 13.519,21.383 13.519,23.607C13.519,27.218 10.106,28.407 7.046,28.407L0,28.407L0,11.167ZM3.809,18.059L6.561,18.059C7.728,18.059 8.939,17.574 8.939,16.187C8.939,14.756 7.574,14.382 6.385,14.382L3.809,14.382L3.809,18.059ZM3.809,25.193L7.222,25.193C8.411,25.193 9.754,24.686 9.754,23.167C9.754,21.538 7.927,21.273 6.694,21.273L3.831,21.273L3.809,25.193ZM28.029,10L31.684,10L31.684,28.407L28.029,28.407L28.029,10ZM38.026,16.584L34.657,16.584L34.657,34L38.312,34L38.312,27.174L38.356,27.174C39.171,28.319 40.58,28.738 42.099,28.738C45.468,28.738 47.516,25.699 47.516,22.418C47.516,18.829 45.204,16.297 41.703,16.297C40.051,16.297 38.62,17.288 38.07,18.147L38.026,18.147L38.026,16.584ZM43.883,22.484C43.883,24.268 42.782,25.479 40.954,25.479C39.127,25.479 38.026,24.268 38.026,22.484C38.026,20.701 39.127,19.49 40.954,19.49C42.782,19.49 43.883,20.701 43.883,22.484ZM49.717,10L53.372,10L53.372,28.407L49.717,28.407L49.717,10ZM61.673,19.49L55.53,24.752L55.53,28.407L66.055,28.407L66.055,25.479L59.493,25.479L65.923,20.084L65.923,16.584L55.684,16.584L55.684,19.49L61.673,19.49Z" style="fill:rgb(55,132,244);"/>
            </g>
            <g transform="matrix(1.02543,0,0,1.29123,-1.78766,-6.12246)">
                <path d="M75.283,28.45L73.5,28.45L78.658,14.05L80.414,14.05L85.572,28.45L83.788,28.45L79.591,16.328L79.481,16.328L75.283,28.45ZM75.942,22.825L83.13,22.825L83.13,24.372L75.942,24.372L75.942,22.825Z" style="fill:rgb(32,45,65);fill-rule:nonzero;"/>
            </g>
            <g transform="matrix(1.02543,0,0,1.29123,-1.78766,-6.12246)">
                <path d="M89.159,21.953L89.159,28.45L87.54,28.45L87.54,17.65L89.104,17.65L89.104,19.337L89.241,19.337C89.488,18.789 89.863,18.348 90.366,18.016C90.869,17.678 91.518,17.509 92.314,17.509C93.027,17.509 93.651,17.659 94.186,17.959C94.721,18.255 95.137,18.705 95.435,19.309C95.732,19.909 95.88,20.669 95.88,21.587L95.88,28.45L94.262,28.45L94.262,21.7C94.262,20.852 94.047,20.191 93.617,19.717C93.187,19.239 92.597,19 91.847,19C91.331,19 90.869,19.115 90.462,19.345C90.06,19.574 89.742,19.909 89.509,20.35C89.275,20.791 89.159,21.325 89.159,21.953Z" style="fill:rgb(32,45,65);fill-rule:nonzero;"/>
            </g>
            <g transform="matrix(1.02543,0,0,1.29123,-1.78766,-6.12246)">
                <path d="M101.938,28.703C101.271,28.703 100.665,28.574 100.121,28.316C99.577,28.054 99.145,27.677 98.825,27.184C98.504,26.688 98.344,26.087 98.344,25.384C98.344,24.766 98.463,24.264 98.701,23.88C98.939,23.491 99.257,23.186 99.654,22.966C100.052,22.745 100.491,22.581 100.971,22.473C101.456,22.361 101.943,22.272 102.432,22.206C103.072,22.122 103.591,22.059 103.989,22.016C104.392,21.97 104.684,21.892 104.867,21.784C105.055,21.677 105.148,21.489 105.148,21.222L105.148,21.166C105.148,20.472 104.963,19.933 104.593,19.548C104.227,19.164 103.671,18.972 102.926,18.972C102.153,18.972 101.547,19.145 101.109,19.492C100.67,19.839 100.361,20.209 100.183,20.603L98.646,20.041C98.921,19.384 99.286,18.873 99.744,18.508C100.205,18.138 100.708,17.88 101.253,17.734C101.801,17.584 102.341,17.509 102.871,17.509C103.21,17.509 103.598,17.552 104.037,17.636C104.481,17.716 104.908,17.882 105.32,18.135C105.736,18.388 106.081,18.77 106.356,19.281C106.63,19.792 106.767,20.477 106.767,21.334L106.767,28.45L105.148,28.45L105.148,26.987L105.066,26.987C104.956,27.222 104.773,27.473 104.517,27.74C104.261,28.007 103.921,28.234 103.495,28.422C103.07,28.609 102.551,28.703 101.938,28.703ZM102.185,27.212C102.826,27.212 103.365,27.084 103.804,26.826C104.248,26.568 104.581,26.235 104.805,25.827C105.034,25.42 105.148,24.991 105.148,24.541L105.148,23.022C105.08,23.106 104.929,23.184 104.696,23.254C104.467,23.32 104.202,23.378 103.9,23.43C103.603,23.477 103.312,23.519 103.029,23.556C102.75,23.589 102.524,23.617 102.35,23.641C101.929,23.697 101.536,23.788 101.17,23.915C100.809,24.037 100.516,24.222 100.292,24.47C100.073,24.714 99.963,25.047 99.963,25.469C99.963,26.045 100.171,26.481 100.587,26.776C101.008,27.067 101.541,27.212 102.185,27.212Z" style="fill:rgb(32,45,65);fill-rule:nonzero;"/>
            </g>
            <g transform="matrix(1.02543,0,0,1.29123,-1.78766,-6.12246)">
                <rect x="109.722" y="14.05" width="1.618" height="14.4" style="fill:rgb(32,45,65);fill-rule:nonzero;"/>
            </g>
            <g transform="matrix(1.02543,0,0,1.29123,-1.78766,-6.12246)">
                <path d="M115.347,32.5C115.073,32.5 114.829,32.477 114.614,32.43C114.399,32.387 114.25,32.345 114.168,32.303L114.579,30.841C114.973,30.944 115.32,30.981 115.622,30.953C115.924,30.925 116.191,30.787 116.424,30.538C116.662,30.295 116.879,29.898 117.076,29.35L117.378,28.506L113.482,17.65L115.238,17.65L118.146,26.256L118.256,26.256L121.164,17.65L122.92,17.65L118.448,30.025C118.247,30.583 117.997,31.045 117.7,31.41C117.403,31.78 117.058,32.055 116.664,32.233C116.276,32.411 115.837,32.5 115.347,32.5Z" style="fill:rgb(32,45,65);fill-rule:nonzero;"/>
            </g>
            <g transform="matrix(1.02543,0,0,1.29123,-1.78766,-6.12246)">
                <path d="M129.638,17.65L129.638,19.056L124.178,19.056L124.178,17.65L129.638,17.65ZM125.77,15.063L127.388,15.063L127.388,25.356C127.388,25.825 127.455,26.177 127.587,26.411C127.724,26.641 127.898,26.795 128.108,26.875C128.323,26.95 128.55,26.987 128.787,26.987C128.966,26.987 129.112,26.978 129.226,26.959C129.341,26.936 129.432,26.917 129.501,26.903L129.83,28.394C129.72,28.436 129.567,28.478 129.37,28.52C129.174,28.567 128.925,28.591 128.623,28.591C128.166,28.591 127.717,28.49 127.278,28.288C126.844,28.087 126.483,27.78 126.195,27.367C125.911,26.955 125.77,26.434 125.77,25.806L125.77,15.063Z" style="fill:rgb(32,45,65);fill-rule:nonzero;"/>
            </g>
            <g transform="matrix(1.02543,0,0,1.29123,-1.78766,-6.12246)">
                <path d="M132.073,28.45L132.073,17.65L133.692,17.65L133.692,28.45L132.073,28.45ZM132.896,15.85C132.58,15.85 132.308,15.74 132.08,15.52C131.856,15.299 131.744,15.034 131.744,14.725C131.744,14.416 131.856,14.151 132.08,13.93C132.308,13.71 132.58,13.6 132.896,13.6C133.211,13.6 133.481,13.71 133.705,13.93C133.934,14.151 134.048,14.416 134.048,14.725C134.048,15.034 133.934,15.299 133.705,15.52C133.481,15.74 133.211,15.85 132.896,15.85Z" style="fill:rgb(32,45,65);fill-rule:nonzero;"/>
            </g>
            <g transform="matrix(1.02543,0,0,1.29123,-1.78766,-6.12246)">
                <path d="M140.936,28.675C139.949,28.675 139.098,28.436 138.385,27.958C137.671,27.48 137.123,26.821 136.739,25.982C136.354,25.143 136.162,24.184 136.162,23.106C136.162,22.009 136.359,21.041 136.752,20.202C137.15,19.359 137.703,18.7 138.412,18.227C139.125,17.748 139.958,17.509 140.909,17.509C141.649,17.509 142.317,17.65 142.912,17.931C143.506,18.213 143.993,18.606 144.372,19.113C144.752,19.619 144.987,20.209 145.079,20.884L143.46,20.884C143.337,20.392 143.062,19.956 142.637,19.577C142.216,19.192 141.649,19 140.936,19C140.305,19 139.752,19.169 139.276,19.506C138.805,19.839 138.437,20.31 138.172,20.92C137.911,21.524 137.781,22.234 137.781,23.05C137.781,23.884 137.909,24.611 138.165,25.23C138.426,25.848 138.792,26.329 139.263,26.671C139.738,27.013 140.296,27.184 140.936,27.184C141.357,27.184 141.739,27.109 142.082,26.959C142.425,26.809 142.715,26.594 142.953,26.313C143.19,26.031 143.36,25.694 143.46,25.3L145.079,25.3C144.987,25.938 144.761,26.512 144.4,27.023C144.043,27.529 143.57,27.932 142.98,28.232C142.395,28.527 141.714,28.675 140.936,28.675Z" style="fill:rgb(32,45,65);fill-rule:nonzero;"/>
            </g>
            <g transform="matrix(1.02543,0,0,1.29123,-1.78766,-6.12246)">
                <path d="M154.908,20.069L153.454,20.491C153.362,20.242 153.227,20.001 153.049,19.766C152.875,19.527 152.637,19.33 152.336,19.176C152.034,19.021 151.647,18.944 151.176,18.944C150.532,18.944 149.994,19.096 149.565,19.401C149.139,19.701 148.927,20.083 148.927,20.547C148.927,20.959 149.073,21.285 149.366,21.524C149.658,21.763 150.116,21.962 150.737,22.122L152.301,22.516C153.243,22.75 153.945,23.109 154.407,23.591C154.869,24.07 155.1,24.686 155.1,25.441C155.1,26.059 154.926,26.612 154.578,27.1C154.236,27.587 153.755,27.972 153.138,28.253C152.521,28.534 151.803,28.675 150.984,28.675C149.91,28.675 149.02,28.436 148.316,27.958C147.612,27.48 147.166,26.781 146.979,25.863L148.515,25.469C148.662,26.05 148.938,26.486 149.345,26.776C149.757,27.067 150.294,27.212 150.957,27.212C151.711,27.212 152.31,27.048 152.754,26.72C153.202,26.388 153.426,25.989 153.426,25.525C153.426,25.15 153.298,24.836 153.042,24.583C152.786,24.325 152.393,24.133 151.862,24.006L150.106,23.584C149.142,23.35 148.433,22.987 147.98,22.494C147.532,21.998 147.308,21.377 147.308,20.631C147.308,20.022 147.475,19.483 147.809,19.014C148.147,18.545 148.607,18.177 149.187,17.91C149.773,17.643 150.436,17.509 151.176,17.509C152.219,17.509 153.037,17.744 153.632,18.213C154.231,18.681 154.656,19.3 154.908,20.069Z" style="fill:rgb(32,45,65);fill-rule:nonzero;"/>
            </g>
        </g>
    </g>
</svg>
